<svg width="70" height="69" viewBox="0 0 70 69" fill="none" xmlns="http://www.w3.org/2000/svg">
<ellipse cx="35" cy="34.5" rx="35" ry="34.5" fill="#F5EFE6"/>
<path d="M49.7841 34.5C49.785 34.8714 49.6885 35.2367 49.5041 35.5603C49.3196 35.884 49.0535 36.155 48.7315 36.3471L28.7772 48.3975C28.4408 48.6008 28.0555 48.7119 27.6611 48.7191C27.2667 48.7263 26.8775 48.6294 26.5336 48.4385C26.1931 48.2505 25.9094 47.9764 25.7118 47.6443C25.5141 47.3123 25.4096 46.9342 25.4091 46.549V22.451C25.4096 22.0658 25.5141 21.6878 25.7118 21.3557C25.9094 21.0236 26.1931 20.7495 26.5336 20.5615C26.8775 20.3706 27.2667 20.2737 27.6611 20.281C28.0555 20.2882 28.4408 20.3992 28.7772 20.6026L48.7315 32.6529C49.0535 32.845 49.3196 33.116 49.5041 33.4397C49.6885 33.7634 49.785 34.1286 49.7841 34.5Z" fill="black"/>
</svg>
